<?xml version="1.0" encoding="UTF-8" standalone="no"?>
<!-- Created with Inkscape (http://www.inkscape.org/) -->

<svg
   width="1080"
   height="1080"
   viewBox="0 0 285.74999 285.75"
   version="1.1"
   id="svg1"
   xml:space="preserve"
   xmlns:inkscape="http://www.inkscape.org/namespaces/inkscape"
   xmlns:sodipodi="http://sodipodi.sourceforge.net/DTD/sodipodi-0.dtd"
   xmlns="http://www.w3.org/2000/svg"
   xmlns:svg="http://www.w3.org/2000/svg"><sodipodi:namedview
     id="namedview1"
     pagecolor="#505050"
     bordercolor="#ffffff"
     borderopacity="1"
     inkscape:showpageshadow="0"
     inkscape:pageopacity="0"
     inkscape:pagecheckerboard="1"
     inkscape:deskcolor="#505050"
     inkscape:document-units="mm" /><defs
     id="defs1" /><g
     inkscape:label="Layer 1"
     inkscape:groupmode="layer"
     id="layer1"><rect
       style="fill:#62a8fd;fill-opacity:1;stroke-width:0.264583"
       id="rect1"
       width="285.75"
       height="285.75"
       x="0"
       y="-285.75"
       transform="scale(1,-1)" /><g
       style="fill:none"
       id="g1"
       transform="matrix(0.26458333,0,0,0.26458333,48.959692,82.814584)"><path
         d="m 16.44,269.24 c -7.28,0 -10.92,-0.8 -10.92,-2.4 v -77.76 c 0,-2.72 1.24,-4.08 3.72,-4.08 h 21.12 c 11.84,0 20.36,2.44 25.56,7.32 5.28,4.88 7.92,11.96 7.92,21.24 0,7.68 -2.48,14.72 -7.44,21.12 -2.48,3.2 -6.12,5.76 -10.92,7.68 -4.8,1.92 -10.4,2.88 -16.8,2.88 v 21.48 c 0,0.96 -1.52,1.64 -4.56,2.04 -2.96,0.32 -5.52,0.48 -7.68,0.48 z m 12.24,-63.36 v 18.96 h 1.56 c 2.8,0 5.16,-0.88 7.08,-2.64 1.92,-1.76 2.88,-4.24 2.88,-7.44 0,-3.2 -0.68,-5.48 -2.04,-6.84 -1.28,-1.36 -3.6,-2.04 -6.96,-2.04 z m 44.5575,56.04 v -74.64 c 0,-1.68 4.04,-2.52 12.12,-2.52 8.16,0 12.24,0.84 12.24,2.52 v 58.8 h 18.4805 c 1.44,0 2.44,1.88 3,5.64 0.24,1.84 0.36,3.72 0.36,5.64 0,1.92 -0.12,3.88 -0.36,5.88 -0.64,3.84 -1.68,5.76 -3.12,5.76 H 78.9975 c -1.76,0 -3.16,-0.72 -4.2,-2.16 -1.04,-1.44 -1.56,-3.08 -1.56,-4.92 z m 109.7485,7.32 c -6.96,0 -10.72,-1.12 -11.28,-3.36 l -3.96,-15.48 h -19.08 l -3.48,14.88 c -0.48,2.48 -4.32,3.72 -11.52,3.72 -3.84,0 -6.68,-0.2 -8.52,-0.6 -1.84,-0.48 -2.76,-0.84 -2.76,-1.08 l 21.24,-81.24 c 0,-0.64 5.48,-0.96 16.44,-0.96 10.96,0 16.44,0.32 16.44,0.96 l 20.76,81.36 c 0,0.56 -1.84,1 -5.52,1.32 -3.68,0.32 -6.6,0.48 -8.76,0.48 z m -31.32,-34.08 h 12.6 l -5.4,-24.84 h -0.72 z m 86.626,31.92 c 0,1.6 -3.96,2.4 -11.88,2.4 -7.92,0 -11.88,-0.8 -11.88,-2.4 v -60.24 h -14.4 c -1.36,0 -2.32,-1.84 -2.88,-5.52 -0.24,-1.76 -0.36,-3.56 -0.36,-5.4 0,-1.84 0.12,-3.64 0.36,-5.4 0.56,-3.68 1.52,-5.52 2.88,-5.52 h 52.2 c 1.36,0 2.32,1.84 2.88,5.52 0.24,1.76 0.36,3.56 0.36,5.4 0,1.84 -0.12,3.64 -0.36,5.4 -0.56,3.68 -1.52,5.52 -2.88,5.52 h -14.04 z M 307.286,185 c 1.36,0 2.04,3.56 2.04,10.68 0,7.04 -0.68,10.56 -2.04,10.56 h -21.96 v 13.68 h 14.64 c 1.36,0 2.04,3.12 2.04,9.36 0,6.16 -0.64,9.24 -1.92,9.24 h -14.76 v 28.92 c 0,1.12 -1.52,1.84 -4.56,2.16 -2.96,0.4 -5.44,0.6 -7.44,0.6 l -5.64,-0.24 c -3.92,-0.48 -5.88,-1.28 -5.88,-2.4 v -79.44 c 0,-1.28 0.24,-2.12 0.72,-2.52 0.56,-0.4 1.36,-0.6 2.4,-0.6 z m 47.362,85.2 c -11.2,0 -20.36,-3.68 -27.48,-11.04 -7.04,-7.36 -10.56,-18.08 -10.56,-32.16 0,-14.16 3.56,-24.88 10.68,-32.16 7.2,-7.28 16.44,-10.92 27.72,-10.92 11.36,0 20.52,3.6 27.48,10.8 6.96,7.12 10.44,17.96 10.44,32.52 0,14.48 -3.56,25.28 -10.68,32.4 -7.12,7.04 -16.32,10.56 -27.6,10.56 z m 0.12,-63.24 c -3.84,0 -7.08,1.76 -9.72,5.28 -2.56,3.52 -3.84,8.48 -3.84,14.88 0,6.32 1.24,11.2 3.72,14.64 2.48,3.36 5.72,5.04 9.72,5.04 4.08,0 7.36,-1.72 9.84,-5.16 2.56,-3.44 3.84,-8.36 3.84,-14.76 0,-6.4 -1.32,-11.32 -3.96,-14.76 -2.56,-3.44 -5.76,-5.16 -9.6,-5.16 z m 70.715,60.36 c 0,1.28 -3.8,1.92 -11.4,1.92 -7.68,0 -11.52,-0.6 -11.52,-1.8 V 189.2 c 0,-2.8 1.48,-4.2 4.44,-4.2 h 22.92 c 21.04,0 31.56,8.2 31.56,24.6 0,4.96 -0.96,9.48 -2.88,13.56 -1.92,4 -4.64,7.2 -8.16,9.6 l 15.12,25.2 c -0.64,1.92 -2.72,4.12 -6.24,6.6 -4.8,3.44 -8.76,5.16 -11.88,5.16 -3.12,0 -5.44,-1.12 -6.96,-3.36 l -11.28,-26.28 h -3.72 z m 0,-61.08 v 18 h 0.6 c 7.6,0 11.4,-3.16 11.4,-9.48 0,-2.88 -0.76,-5 -2.28,-6.36 -1.44,-1.44 -3.84,-2.16 -7.2,-2.16 z m 131.861,62.88 c -7.12,0 -10.68,-0.8 -10.68,-2.4 l -2.52,-48.12 -14.64,48.72 c -0.32,0.96 -3.04,1.44 -8.16,1.44 -5.12,0 -7.76,-0.44 -7.92,-1.32 l -15.12,-49.32 -1.68,47.88 c -0.08,1.2 -1.6,2.04 -4.56,2.52 -2.96,0.4 -5.44,0.6 -7.44,0.6 -1.92,0 -3.8,-0.12 -5.64,-0.36 -3.84,-0.56 -5.72,-1.56 -5.64,-3 l 2.76,-78 c 0,-1.92 4.88,-2.88 14.64,-2.88 2.88,0 6.4,0.24 10.56,0.72 4.16,0.4 6.48,1.24 6.96,2.52 l 13.44,37.8 11.76,-37.92 c 0.72,-2.08 6.24,-3.12 16.56,-3.12 2.96,0 6.48,0.24 10.56,0.72 4.16,0.4 6.24,1.16 6.24,2.28 l 3.48,78.72 c 0,0.88 -1.56,1.52 -4.68,1.92 -3.12,0.4 -5.88,0.6 -8.28,0.6 z m 63.867,-50.76 c 1.52,0 2.28,2.8 2.28,8.4 0,1.68 -0.2,3.68 -0.6,6 -0.32,2.24 -0.96,3.36 -1.92,3.36 h -15.24 v 12 h 22.08 c 1.36,0 2.28,1.76 2.76,5.28 0.24,1.52 0.36,3.16 0.36,4.92 0,1.68 -0.24,3.88 -0.72,6.6 -0.48,2.72 -1.28,4.08 -2.4,4.08 h -41.04 c -3.04,0 -4.56,-1.24 -4.56,-3.72 v -77.16 c 0,-2.08 0.92,-3.12 2.76,-3.12 h 42.96 c 1.68,0 2.52,3.56 2.52,10.68 0,7.04 -0.84,10.56 -2.52,10.56 h -22.2 v 12.12 z m 43.1,48.96 c 0,1.28 -3.8,1.92 -11.4,1.92 -7.68,0 -11.52,-0.6 -11.52,-1.8 V 189.2 c 0,-2.8 1.48,-4.2 4.44,-4.2 h 22.92 c 21.04,0 31.56,8.2 31.56,24.6 0,4.96 -0.96,9.48 -2.88,13.56 -1.92,4 -4.64,7.2 -8.16,9.6 l 15.12,25.2 c -0.64,1.92 -2.72,4.12 -6.24,6.6 -4.8,3.44 -8.76,5.16 -11.88,5.16 -3.12,0 -5.44,-1.12 -6.96,-3.36 l -11.28,-26.28 h -3.72 z m 0,-61.08 v 18 h 0.6 c 7.6,0 11.4,-3.16 11.4,-9.48 0,-2.88 -0.76,-5 -2.28,-6.36 -1.44,-1.44 -3.84,-2.16 -7.2,-2.16 z"
         fill="#ffffff"
         id="path1" /><path
         fill-rule="evenodd"
         clip-rule="evenodd"
         d="m 22,397.4 c 0,-11.2 2.8,-23.8 8.4,-37.8 5.6,-14.4 11,-25.8 16.2,-34.2 5.2,-8.8 8.2,-13.2 9,-13.2 23.2,14 47.6,21 73.2,21 16,0 28.8,-3.2 38.4,-9.6 10,-6.4 15,-15.2 15,-26.4 0,-4.78 -0.781,-8.846 -2.343,-12.2 h 119.111 c 2.555,9.547 3.832,19.814 3.832,30.8 0,38 -13.4,68.8 -40.2,92.4 C 235.8,431.4 197.4,443 147.4,443 115.8,443 87,438.6 61,429.8 35,420.6 22,409.8 22,397.4 Z M 273.204,166 H 166.413 c 2.525,-3.73 3.787,-7.797 3.787,-12.2 0,-16.8 -15,-25.2 -45,-25.2 -22.4,0 -44,4.4 -64.8,13.2 -18,-32.4 -27,-57.6 -27,-75.6 C 33.4,47.8 46,34 71.2,24.8 96.8,15.6 128.8,11 167.2,11 c 38.4,0 68.4,8 90,24 21.6,16 32.4,37.8 32.4,65.4 0,24.809 -5.465,46.676 -16.396,65.6 z m 83.788,243.4 V 285 h 115.2 v 25.4 c 0,8.4 0.6,13.8 1.8,16.2 1.2,2 4.8,3 10.8,3 22,0 38.6,-8.2 49.8,-24.6 3.867,-5.467 7.089,-12.133 9.667,-20 H 673.128 C 655.382,386.333 594.403,437 490.192,437 h -102.6 c -20.4,0 -30.6,-9.2 -30.6,-27.6 z m 0,-243.4 h 115.2 v -35 h 6 c 25.6,0 44.2,5.8 55.8,17.4 4.294,4.151 7.82,10.018 10.577,17.6 H 675.187 C 668.775,122.298 653.31,88.6318 628.792,65 c -32.8,-32 -81,-48 -144.6,-48 h -100.2 c -8,0 -14.6,3 -19.8,9 -4.8,5.6 -7.2,13.4 -7.2,23.4 z m 19.113,128.935 c 0.607,-1.073 1.085,-1.832 1.435,-2.275 -0.303,-0.397 -0.933,-0.77 -1.89,-1.12 -0.933,-0.35 -1.878,-0.525 -2.835,-0.525 -0.957,0 -1.773,0.42 -2.45,1.26 -0.677,0.84 -1.132,1.82 -1.365,2.94 -0.233,1.143 -0.35,2.415 -0.35,3.815 0.047,2.87 0.863,4.993 2.45,6.37 1.587,1.377 3.628,2.065 6.125,2.065 1.913,0 3.453,-0.618 4.62,-1.855 0.56,-0.607 1.003,-1.178 1.33,-1.715 0.35,-0.513 0.63,-1.003 0.84,-1.47 0.233,-0.443 0.432,-0.84 0.595,-1.19 0.163,-0.35 0.292,-0.618 0.385,-0.805 0.397,-0.863 0.852,-1.295 1.365,-1.295 0.84,0 1.26,0.583 1.26,1.75 0,1.19 -0.385,2.532 -1.155,4.025 0.14,0.21 0.828,0.572 2.065,1.085 1.26,0.513 2.298,0.77 3.115,0.77 h 0.21 c 0.583,-0.047 1.05,-0.782 1.4,-2.205 0.373,-1.423 0.56,-2.975 0.56,-4.655 0,-2.473 -0.712,-4.48 -2.135,-6.02 -1.4,-1.517 -3.127,-2.275 -5.18,-2.275 -2.053,0 -3.745,0.467 -5.075,1.4 -0.49,0.327 -0.968,0.793 -1.435,1.4 -0.443,0.63 -0.77,1.132 -0.98,1.505 -0.187,0.373 -0.455,0.933 -0.805,1.68 -0.35,0.747 -0.665,1.26 -0.945,1.54 -0.257,0.28 -0.56,0.42 -0.91,0.42 -0.77,0 -1.155,-0.502 -1.155,-1.505 0,-0.98 0.303,-2.018 0.91,-3.115 z m -7.245,22.479 c 0,2.31 0.233,3.465 0.7,3.465 h 17.57 v 4.095 c 0,0.396 0.537,0.676 1.61,0.84 0.513,0.07 1.038,0.105 1.575,0.105 0.537,0 1.062,-0.035 1.575,-0.105 1.073,-0.164 1.61,-0.444 1.61,-0.84 v -15.225 c 0,-0.397 -0.537,-0.677 -1.61,-0.84 -0.513,-0.07 -1.038,-0.105 -1.575,-0.105 -0.537,0 -1.062,0.035 -1.575,0.105 -1.073,0.163 -1.61,0.443 -1.61,0.84 v 4.2 h -17.57 c -0.467,0 -0.7,1.155 -0.7,3.465 z m 1.05,22.769 c -0.653,0.164 -0.98,1.26 -0.98,3.29 0,0.63 0.047,1.482 0.14,2.555 0.093,1.074 0.222,1.61 0.385,1.61 l 23.73,-6.055 c 0.187,0 0.28,-1.598 0.28,-4.795 0,-3.196 -0.093,-4.795 -0.28,-4.795 l -23.695,-6.195 c -0.07,0 -0.175,0.269 -0.315,0.805 -0.117,0.537 -0.175,1.365 -0.175,2.485 0,2.1 0.362,3.22 1.085,3.36 l 4.34,1.015 v 5.565 z m 8.96,-2.17 v -3.675 l 7.245,1.89 v 0.21 z m -9.94,15.305 c 0,2.217 0.187,3.325 0.56,3.325 h 7.945 v 1.085 l -7.665,3.29 c -0.653,0.443 -0.98,1.12 -0.98,2.03 0,0.91 0.502,2.065 1.505,3.465 0.723,1.027 1.365,1.633 1.925,1.82 l 7.35,-4.41 c 0.7,1.027 1.633,1.82 2.8,2.38 1.19,0.56 2.508,0.84 3.955,0.84 4.783,0 7.175,-3.068 7.175,-9.205 v -6.685 c 0,-0.863 -0.408,-1.295 -1.225,-1.295 h -22.82 c -0.35,0 -0.525,1.12 -0.525,3.36 z m 13.125,3.325 h 5.25 v 0.735 c 0,0.98 -0.21,1.68 -0.63,2.1 -0.397,0.443 -1.015,0.665 -1.855,0.665 -1.843,0 -2.765,-1.108 -2.765,-3.325 z m -13.195,21.03 c 0,2.31 0.233,3.465 0.7,3.465 h 17.57 v 4.095 c 0,0.396 0.537,0.676 1.61,0.84 0.513,0.07 1.038,0.105 1.575,0.105 0.537,0 1.062,-0.035 1.575,-0.105 1.073,-0.164 1.61,-0.444 1.61,-0.84 v -15.225 c 0,-0.397 -0.537,-0.677 -1.61,-0.84 -0.513,-0.07 -1.038,-0.105 -1.575,-0.105 -0.537,0 -1.062,0.035 -1.575,0.105 -1.073,0.163 -1.61,0.443 -1.61,0.84 v 4.2 h -17.57 c -0.467,0 -0.7,1.155 -0.7,3.465 z m 12.46,22.538 c 1.633,0 2.45,-0.222 2.45,-0.665 v -4.515 h 3.535 v 6.475 c 0,0.49 1.027,0.735 3.08,0.735 2.077,0 3.115,-0.245 3.115,-0.735 v -12.53 c 0,-0.537 -0.303,-0.805 -0.91,-0.805 h -22.505 c -0.723,0 -1.085,0.443 -1.085,1.33 v 11.97 c 0,0.327 0.397,0.56 1.19,0.7 0.793,0.14 1.435,0.21 1.925,0.21 0.513,0 0.992,-0.035 1.435,-0.105 1.027,-0.14 1.54,-0.408 1.54,-0.805 v -6.44 h 3.5 v 4.445 c 0,0.28 0.327,0.467 0.98,0.56 0.677,0.117 1.26,0.175 1.75,0.175 z m -12.39,8.581 c 0,2.216 0.187,3.325 0.56,3.325 h 7.945 v 1.085 l -7.665,3.29 c -0.653,0.443 -0.98,1.12 -0.98,2.03 0,0.91 0.502,2.065 1.505,3.465 0.723,1.026 1.365,1.633 1.925,1.82 l 7.35,-4.41 c 0.7,1.026 1.633,1.82 2.8,2.38 1.19,0.56 2.508,0.84 3.955,0.84 4.783,0 7.175,-3.069 7.175,-9.205 v -6.685 c 0,-0.864 -0.408,-1.295 -1.225,-1.295 h -22.82 c -0.35,0 -0.525,1.12 -0.525,3.36 z m 13.125,3.325 h 5.25 v 0.735 c 0,0.98 -0.21,1.68 -0.63,2.1 -0.397,0.443 -1.015,0.665 -1.855,0.665 -1.843,0 -2.765,-1.109 -2.765,-3.325 z"
         fill="#ffffff"
         id="path3" /><path
         d="m 30.4,359.6 10.2132,4.085 0.0197,-0.049 0.0192,-0.049 z m 16.2,-34.2 9.3529,5.79 0.0597,-0.096 0.0576,-0.098 z m 9,-13.2 5.6833,-9.418 -2.6215,-1.582 H 55.6 Z m 111.6,11.4 -5.93,-9.265 -0.086,0.055 -0.086,0.057 z M 179.857,285 v -11 h -17.258 l 7.287,15.644 z m 119.111,0 10.627,-2.843 -2.183,-8.157 h -8.444 z m -36.368,123.2 7.2,8.317 0.035,-0.031 0.035,-0.031 z M 61,429.8 l -3.6694,10.37 0.0713,0.025 0.0715,0.024 z M 166.413,166 157.303,159.834 145.685,177 h 20.728 z m 106.791,0 v 11 h 6.35 l 3.176,-5.498 z M 60.4,141.8 l -9.6157,5.342 4.7997,8.64 9.102,-3.851 z m 10.8,-117 -3.7202,-10.3518 -0.0261,0.0094 -0.026,0.0095 z m 186,10.2 -6.547,8.8391 v 0 z m 99.792,250 v -11 h -11 v 11 z m 115.2,0 h 11 v -11 h -11 z m 1.8,41.6 -9.839,4.919 0.189,0.378 0.218,0.363 z m 60.6,-21.6 -8.98,-6.352 -0.053,0.074 -0.051,0.074 z m 9.667,-20 v -11 h -7.971 l -2.482,7.575 z m 128.869,0 10.835,1.898 L 686.222,274 H 673.128 Z M 472.192,166 v 11 h 11 v -11 z m -115.2,0 h -11 v 11 h 11 z m 115.2,-35 v -11 h -11 v 11 z m 61.8,17.4 -7.778,7.778 0.066,0.066 0.067,0.065 z m 10.577,17.6 -10.337,3.759 2.633,7.241 h 7.704 z m 130.618,0 v 11 h 12.731 l -1.848,-12.597 z m -46.395,-101 -7.681,7.8736 0.023,0.0233 0.024,0.0231 z m -264.6,-39 -8.312,-7.2042 -0.02,0.0227 -0.02,0.0228 z m 13.348,266.66 8.634,6.816 5.296,-6.708 -5.192,-6.79 z m -1.435,2.275 -9.576,-5.413 -0.025,0.044 -0.024,0.044 z m -0.455,-3.395 -3.862,10.3 0.041,0.015 0.042,0.015 z m -6.65,3.675 -10.769,-2.244 -0.004,0.022 -0.005,0.022 z m -0.35,3.815 h -11 v 0.089 l 0.001,0.09 z m 2.45,6.37 7.209,-8.309 v 0 z m 10.745,0.21 8.001,7.548 0.041,-0.043 0.041,-0.044 z m 1.33,-1.715 -9.088,-6.197 -0.161,0.235 -0.147,0.243 z m 0.84,-1.47 -9.734,-5.123 -0.158,0.3 -0.139,0.309 z m 0.595,-1.19 -9.968,-4.653 v 0.001 z m 0.385,-0.805 9.839,4.919 0.081,-0.162 0.075,-0.164 z m 1.47,4.48 -9.777,-5.041 -2.968,5.756 3.593,5.387 z m 2.065,1.085 -4.217,10.159 0.033,0.014 0.034,0.014 z m 3.325,0.77 v 11 h 0.44 l 0.438,-0.035 z m 1.4,-2.205 -10.64,-2.791 -0.022,0.082 -0.02,0.082 z m -1.575,-10.675 -8.083,7.461 0.005,0.005 z m -10.255,-0.875 6.102,9.153 0.109,-0.073 0.108,-0.076 z m -1.435,1.4 -8.719,-6.707 -0.142,0.185 -0.135,0.192 z m -0.98,1.505 -9.588,-5.392 -0.131,0.233 -0.12,0.239 z m -0.805,1.68 -9.96,-4.669 v 0.001 z m -0.945,1.54 -7.778,-7.778 -0.169,0.169 -0.161,0.176 z m 9.87,21.744 h 11 v -11 h -11 z m 1.61,4.935 -1.655,10.875 0.084,0.012 0.085,0.012 z m 3.15,0 1.486,10.899 0.085,-0.012 0.084,-0.012 z m 0,-16.905 1.655,-10.875 -0.084,-0.013 -0.085,-0.011 z m -3.15,0 -1.486,-10.899 -0.085,0.011 -0.084,0.013 z m -1.61,5.04 v 11 h 11 v -11 z m -17.22,26.234 2.668,10.672 0.029,-0.007 0.029,-0.008 z m -0.84,5.845 10.959,-0.952 v -0.001 z m 0.385,1.61 v 11 h 1.381 l 1.339,-0.341 z m 23.73,-6.055 v -11 h -1.381 l -1.339,0.342 z m 0,-9.59 -2.782,10.643 1.368,0.357 h 1.414 z m -23.695,-6.195 2.782,-10.642 -1.368,-0.358 h -1.414 z m -0.315,0.805 -10.644,-2.777 -0.057,0.219 -0.048,0.222 z m 0.91,5.845 2.505,-10.711 -0.207,-0.048 -0.208,-0.04 z m 4.34,1.015 h 11 v -8.724 l -8.495,-1.987 z m 0,5.565 2.726,10.657 8.274,-2.116 v -8.541 z m 4.445,-4.69 2.777,-10.643 -13.777,-3.594 v 14.237 z m 0,3.675 h -11 v 13.649 l 13.337,-2.9 z m 7.245,-1.785 h 11 v -8.498 l -8.223,-2.145 z m 0,0.21 2.337,10.749 8.663,-1.883 v -8.866 z m -8.68,20.205 h 11 v -11 h -11 z m 0,1.085 4.339,10.108 6.661,-2.859 v -7.249 z m -7.665,3.29 -4.339,-10.108 -0.967,0.415 -0.871,0.591 z m 0.525,5.495 8.992,-6.335 -0.025,-0.037 -0.026,-0.036 z m 1.925,1.82 -3.479,10.435 4.8,1.6 4.338,-2.603 z m 7.35,-4.41 9.089,-6.197 -5.848,-8.576 -8.9,5.341 z m 2.8,2.38 -4.76,9.917 0.038,0.018 0.038,0.018 z m 4.935,-9.66 h 11 v -11 h -11 z m -5.25,0 v -11 h -11 v 11 z m 4.62,2.835 -7.778,-7.778 -0.216,0.216 -0.204,0.227 z m 0.455,21.66 h 11 v -11 h -11 z m 1.61,4.935 -1.655,10.874 0.084,0.013 0.085,0.012 z m 3.15,0 1.486,10.899 0.085,-0.012 0.084,-0.013 z m 0,-16.905 1.655,-10.875 -0.084,-0.013 -0.085,-0.012 z m -3.15,0 -1.486,-10.9 -0.085,0.012 -0.084,0.013 z m -1.61,5.04 v 11 h 11 v -11 z m -3.36,20.823 v -11 h -11 v 11 z m 3.535,0 h 11 v -11 h -11 z m -17.115,7.14 1.912,-10.833 h -10e-4 z m 3.36,0.105 -1.486,-10.899 -0.115,0.015 -0.114,0.018 z m 1.54,-7.245 v -11 h -11 v 11 z m 3.5,0 h 11 v -11 h -11 z m 0.98,5.005 1.869,-10.84 -0.156,-0.027 -0.158,-0.023 z m -2.135,12.081 h 11 v -11 h -11 z m 0,1.085 4.339,10.108 6.661,-2.859 v -7.249 z m -7.665,3.29 -4.339,-10.109 -0.967,0.416 -0.871,0.59 z m 0.525,5.495 8.992,-6.336 -0.025,-0.036 -0.026,-0.036 z m 1.925,1.82 -3.479,10.435 4.8,1.6 4.338,-2.603 z m 7.35,-4.41 9.089,-6.197 -5.848,-8.576 -8.9,5.34 z m 2.8,2.38 -4.76,9.916 0.038,0.019 0.038,0.018 z m 4.935,-9.66 h 11 v -11 h -11 z m -5.25,0 v -11 h -11 v 11 z m 4.62,2.835 -7.778,-7.779 -0.216,0.216 -0.204,0.228 z M 20.1868,355.515 C 14.2363,370.391 11,384.408 11,397.4 h 22 c 0,-9.407 2.3637,-20.591 7.6132,-33.715 z M 37.2471,319.61 c -5.6938,9.198 -11.3751,21.284 -17.0992,36.003 l 20.5042,7.974 C 46.128,349.506 51.2467,338.792 55.9529,331.19 Z M 55.6,301.2 c -2.4544,0 -4.2906,0.801 -5.186,1.259 -0.9846,0.504 -1.7201,1.057 -2.1655,1.42 -0.8849,0.721 -1.5673,1.471 -1.986,1.956 -0.8854,1.025 -1.7746,2.256 -2.601,3.468 -1.7047,2.501 -3.899,6.046 -6.5317,10.501 l 18.9404,11.192 c 2.5673,-4.345 4.473,-7.399 5.7683,-9.299 0.3147,-0.462 0.5682,-0.818 0.7654,-1.084 0.0974,-0.131 0.1734,-0.23 0.2293,-0.3 0.0569,-0.072 0.0825,-0.102 0.0794,-0.098 -5e-4,0 -0.0546,0.063 -0.1573,0.168 -0.0943,0.095 -0.3016,0.3 -0.61,0.551 -0.2767,0.225 -0.8606,0.675 -1.7108,1.11 -0.761,0.39 -2.4801,1.156 -4.8345,1.156 z m 73.2,21 c -23.478,0 -45.9272,-6.39 -67.5167,-19.418 L 49.9167,321.618 C 74.7272,336.59 101.078,344.2 128.8,344.2 Z m 32.298,-7.753 C 153.879,319.26 143.44,322.2 128.8,322.2 v 22 c 17.36,0 32.521,-3.46 44.502,-11.447 z M 171.2,297.2 c 0,7.186 -2.861,12.611 -9.93,17.135 l 11.86,18.53 c 12.931,-8.276 20.07,-20.451 20.07,-35.665 z m -1.314,-7.556 c 0.717,1.54 1.314,3.93 1.314,7.556 h 22 c 0,-5.934 -0.965,-11.677 -3.372,-16.844 z M 298.968,274 H 179.857 v 22 h 119.111 z m 14.832,41.8 c 0,-11.841 -1.377,-23.072 -4.205,-33.643 l -21.253,5.686 c 2.281,8.523 3.458,17.825 3.458,27.957 z M 269.87,416.455 C 299.208,390.62 313.8,356.73 313.8,315.8 h -22 c 0,35.07 -12.208,62.78 -36.47,84.145 z M 147.4,454 c 51.568,0 92.914,-11.959 122.4,-37.483 L 255.401,399.883 C 231.286,420.759 195.832,432 147.4,432 Z M 57.4734,440.219 C 84.7667,449.457 114.779,454 147.4,454 v -22 c -30.579,0 -58.1667,-4.257 -82.8734,-12.619 z M 11,397.4 c 0,10.546 5.67,19.173 13.7208,25.861 7.9301,6.588 19.0592,12.114 32.6098,16.909 l 7.3388,-20.74 C 52.22,415.025 43.8491,410.551 38.7792,406.339 33.83,402.227 33,399.254 33,397.4 Z M 166.413,177 H 273.204 V 155 H 166.413 Z M 159.2,153.8 c 0,2.152 -0.574,4.08 -1.897,6.034 l 18.22,12.332 c 3.726,-5.506 5.677,-11.712 5.677,-18.366 z m -34,-14.2 c 14.334,0 23.325,2.069 28.375,4.898 2.359,1.32 3.631,2.678 4.36,3.903 0.722,1.213 1.265,2.886 1.265,5.399 h 22 c 0,-5.887 -1.332,-11.564 -4.36,-16.651 -3.021,-5.075 -7.374,-8.967 -12.515,-11.847 -9.95,-5.571 -23.459,-7.702 -39.125,-7.702 z M 64.686,151.931 C 84.1415,143.7 104.285,139.6 125.2,139.6 v -22 c -23.885,0 -46.9415,4.701 -69.086,14.069 z M 22.4,66.2 c 0,20.9893 10.2475,48.296 28.3843,80.942 L 70.0157,136.458 C 52.1525,104.304 44.4,81.2107 44.4,66.2 Z M 67.4277,14.4671 C 53.8405,19.4275 42.6271,25.9801 34.7267,34.633 26.608,43.5249 22.4,54.2084 22.4,66.2 h 22 c 0,-6.4084 2.092,-11.8249 6.5733,-16.733 4.6996,-5.1471 12.3862,-10.0945 23.999,-14.3341 z M 167.2,0 C 128.012,0 94.6542,4.6824 67.4798,14.4482 l 7.4404,20.7036 C 98.9458,26.5176 129.588,22 167.2,22 Z m 96.548,26.1609 C 239.595,8.27016 206.981,0 167.2,0 v 22 c 37.019,0 64.405,7.7299 83.453,21.8391 z M 300.6,100.4 c 0,-30.9754 -12.365,-56.0999 -36.852,-74.2391 L 250.653,43.8391 C 269.365,57.6999 278.6,76.1754 278.6,100.4 Z m -17.87,71.102 C 294.751,150.689 300.6,126.875 300.6,100.4 h -22 c 0,23.144 -5.081,43.063 -14.921,60.098 z M 345.992,285 v 124.4 h 22 V 285 Z m 126.2,-11 h -115.2 v 22 h 115.2 z m 11,36.4 V 285 h -22 v 25.4 z m 0.639,11.281 c 0.314,0.628 0.017,0.309 -0.256,-2.146 -0.238,-2.142 -0.383,-5.148 -0.383,-9.135 h -22 c 0,4.413 0.155,8.307 0.517,11.565 0.328,2.945 0.93,6.526 2.444,9.554 z m 0.961,-3.081 c -1.206,0 -2.167,-0.051 -2.91,-0.128 -0.756,-0.079 -1.178,-0.174 -1.346,-0.221 -0.187,-0.052 0.106,0.002 0.636,0.334 0.563,0.351 1.487,1.08 2.253,2.356 L 464.56,332.26 c 2.711,4.518 7.133,6.368 10.088,7.189 3.158,0.877 6.673,1.151 10.144,1.151 z m 40.716,-19.804 c -8.904,13.039 -21.891,19.804 -40.716,19.804 v 22 c 25.175,0 45.388,-9.635 58.884,-29.396 z m 8.298,-17.221 c -2.313,7.059 -5.091,12.685 -8.194,17.073 l 17.961,12.704 c 4.63,-6.546 8.297,-14.252 11.139,-22.927 z M 673.128,274 H 544.259 v 22 H 673.128 Z M 490.192,448 c 53.857,0 97.91,-13.11 130.922,-40.539 33.03,-27.445 53.662,-68.106 62.849,-120.563 l -21.67,-3.796 c -8.56,48.876 -27.29,84.215 -55.239,107.437 C 579.088,413.776 540.546,426 490.192,426 Z m -102.6,0 h 102.6 v -22 h -102.6 z m -41.6,-38.6 c 0,11.205 3.158,21.54 11.283,28.868 7.909,7.134 18.686,9.732 30.317,9.732 v -22 c -8.768,0 -13.291,-2.002 -15.582,-4.068 -2.076,-1.872 -4.018,-5.337 -4.018,-12.532 z M 472.192,155 h -115.2 v 22 h 115.2 z m -11,-24 v 35 h 22 v -35 z m 17,-11 h -6 v 22 h 6 z m 63.578,20.622 C 527.205,126.056 505.119,120 478.192,120 v 22 c 24.273,0 39.388,5.544 48.022,14.178 z m 13.137,21.619 c -3.138,-8.629 -7.43,-16.105 -13.27,-21.75 l -15.29,15.818 c 2.748,2.657 5.508,6.914 7.885,13.45 z M 675.187,155 H 544.569 v 22 H 675.187 Z M 621.158,72.92 c 22.305,21.498 36.981,52.664 43.145,94.677 l 21.767,-3.194 C 679.411,119.013 663.158,82.8456 636.426,57.08 Z M 484.192,28 c 61.859,0 106.86,15.5484 136.919,44.8736 L 636.474,57.1264 C 600.932,22.4516 549.533,5.99999 484.192,5.99999 Z m -100.2,0 h 100.2 V 5.99999 h -100.2 z m -11.487,5.2042 C 375.597,29.636 379.154,28 383.992,28 V 5.99999 c -11.162,0 -20.805,4.36401 -28.112,12.79581 z M 367.992,49.4 c 0,-8.3124 1.986,-13.2473 4.552,-16.2413 L 355.84,18.8413 c -7.033,8.2061 -9.848,18.8711 -9.848,30.5587 z m 0,116.6 V 49.4 h -22 V 166 Z m 0.914,119.844 c -0.912,1.155 -1.739,2.549 -2.377,3.678 l 19.152,10.826 c 0.246,-0.435 0.424,-0.732 0.542,-0.918 0.027,-0.044 0.048,-0.077 0.064,-0.101 0.008,-0.011 0.013,-0.02 0.017,-0.026 0.004,-0.006 0.006,-0.009 0.006,-0.008 0,0 -0.002,0.003 -0.007,0.01 -0.005,0.007 -0.013,0.018 -0.024,0.032 -0.02,0.028 -0.055,0.076 -0.105,0.139 z m 2.965,16.026 c 0.069,0.026 -0.196,-0.062 -0.639,-0.324 -0.381,-0.226 -1.425,-0.89 -2.43,-2.204 l 17.476,-13.364 c -2.339,-3.059 -5.592,-4.309 -6.849,-4.768 z m 0.944,0.145 c -0.417,0 -0.778,-0.082 -1.027,-0.175 l 7.724,-20.6 c -2.116,-0.793 -4.366,-1.225 -6.697,-1.225 z m 6.116,-2.839 c -0.459,0.57 -1.239,1.331 -2.415,1.936 -1.214,0.624 -2.505,0.903 -3.701,0.903 v -22 c -4.737,0 -8.553,2.301 -11.016,5.359 z m 0.838,-1.717 c -0.1,0.478 -0.356,1.118 -0.838,1.717 l -17.132,-13.802 c -1.836,2.279 -3.001,4.879 -3.568,7.597 z m -0.119,1.571 c 0,-0.803 0.068,-1.322 0.128,-1.615 l -21.556,-4.4 c -0.407,1.994 -0.572,4.018 -0.572,6.015 z m -1.341,-1.939 c 0.679,0.589 1.072,1.258 1.255,1.735 0.158,0.411 0.092,0.493 0.085,0.025 l -21.998,0.358 c 0.079,4.802 1.52,10.405 6.24,14.5 z m -1.084,-0.626 c -0.239,0 -0.165,-0.033 0.11,0.06 0.302,0.102 0.657,0.292 0.974,0.566 l -14.418,16.618 c 3.951,3.428 8.714,4.756 13.334,4.756 z m -3.381,1.597 c 0.482,-0.511 1.127,-0.97 1.872,-1.269 0.717,-0.287 1.274,-0.328 1.509,-0.328 v 22 c 4.523,0 9.106,-1.58 12.621,-5.307 z m -0.065,0.114 c 0.041,-0.069 0.074,-0.118 0.095,-0.148 0.021,-0.03 0.032,-0.044 0.031,-0.043 -10e-4,0.002 -0.013,0.017 -0.037,0.045 -0.024,0.028 -0.059,0.068 -0.106,0.119 l 16.166,14.922 c 0.91,-0.986 1.841,-2.139 2.643,-3.457 z m 0.205,-0.265 c 0.054,-0.12 0.095,-0.195 0.113,-0.226 0.018,-0.031 0.017,-0.027 -0.01,0.013 l 18.176,12.394 c 0.639,-0.937 1.26,-1.99 1.783,-3.153 z m 0.658,-1.328 c -0.071,0.153 -0.187,0.388 -0.361,0.719 l 19.468,10.246 c 0.293,-0.556 0.574,-1.114 0.829,-1.661 z m 0.514,-1.072 c -0.16,0.32 -0.337,0.694 -0.514,1.071 l 19.936,9.306 c 0.15,-0.323 0.229,-0.486 0.256,-0.539 z m 11.204,-7.376 c -7.6,0 -10.738,6.349 -11.36,7.702 l 19.99,9.186 c -0.115,0.251 -0.613,1.303 -1.785,2.416 -1.338,1.269 -3.688,2.696 -6.845,2.696 z m 12.26,12.75 c 0,-1.573 -0.224,-4.734 -2.388,-7.74 -2.646,-3.674 -6.596,-5.01 -9.872,-5.01 v 22 c -1.057,0 -2.508,-0.185 -4.07,-0.908 -1.622,-0.751 -2.952,-1.894 -3.912,-3.227 -1.744,-2.423 -1.758,-4.708 -1.758,-5.115 z m -2.378,9.066 c 1.263,-2.449 2.378,-5.551 2.378,-9.066 h -22 c 0,-0.591 0.095,-0.985 0.138,-1.135 0.042,-0.146 0.049,-0.111 -0.07,0.119 z m -3.495,-14.116 c -0.496,-0.206 -0.629,-0.278 -0.544,-0.234 0.032,0.017 0.319,0.166 0.718,0.442 0.205,0.141 0.552,0.393 0.957,0.755 0.363,0.325 1.061,0.993 1.739,2.01 l -18.304,12.204 c 1.246,1.869 2.772,2.903 3.112,3.137 0.606,0.418 1.168,0.729 1.545,0.927 0.772,0.406 1.603,0.771 2.343,1.078 z m -1.102,-0.07 c 0.706,0 1.154,0.106 1.249,0.129 0.111,0.028 0.05,0.022 -0.214,-0.086 l -8.3,20.374 c 1.816,0.74 4.386,1.583 7.265,1.583 z m 0.21,0 h -0.21 v 22 h 0.21 z m -9.282,6.168 c -0.057,0.232 0.088,-0.555 0.783,-1.65 0.68,-1.071 3.035,-4.116 7.621,-4.483 l 1.756,21.93 c 5.169,-0.414 8.049,-3.85 9.196,-5.655 1.162,-1.831 1.715,-3.696 2.008,-4.888 z m 0.242,-2.028 c 0,0.868 -0.097,1.47 -0.2,1.864 l 21.28,5.582 c 0.643,-2.453 0.92,-4.954 0.92,-7.446 z m 0.787,1.446 c -0.316,-0.342 -0.553,-0.749 -0.688,-1.129 -0.125,-0.351 -0.099,-0.5 -0.099,-0.317 h 22 c 0,-4.713 -1.425,-9.557 -5.057,-13.486 z m 2.898,1.259 c -0.36,0 -0.938,-0.074 -1.588,-0.36 -0.65,-0.285 -1.086,-0.656 -1.315,-0.904 l 16.166,-14.922 c -3.47,-3.759 -8.121,-5.814 -13.263,-5.814 z m 1.244,-0.596 c -0.446,0.313 -0.856,0.475 -1.127,0.55 -0.253,0.07 -0.318,0.046 -0.117,0.046 v -22 c -3.716,0 -7.777,0.858 -11.394,3.396 z m 0.965,-0.897 c -0.059,0.076 -0.423,0.54 -1.182,1.046 l -12.204,-18.306 c -1.739,1.16 -3.06,2.557 -4.052,3.846 z m -0.111,0.191 c -0.048,0.083 -0.048,0.076 0.033,-0.047 0.074,-0.114 0.189,-0.285 0.355,-0.521 l -17.992,-12.66 c -0.517,0.734 -1.091,1.589 -1.572,2.443 z m -0.433,0.956 c 0.341,-0.727 0.561,-1.185 0.684,-1.429 l -19.678,-9.84 c -0.251,0.502 -0.567,1.165 -0.926,1.931 z m -3.127,4.649 c 1.716,-1.715 2.692,-3.721 3.127,-4.65 l -19.92,-9.336 c -0.059,0.126 -0.034,0.054 0.086,-0.14 0.063,-0.104 0.177,-0.281 0.346,-0.506 0.163,-0.218 0.429,-0.548 0.805,-0.924 z m -8.688,3.642 c 3.715,0 6.877,-1.651 9.018,-3.987 l -16.216,-14.866 c 0.722,-0.789 1.737,-1.62 3.079,-2.24 1.362,-0.628 2.78,-0.907 4.119,-0.907 z M 364.195,298.05 c 0,1.6 0.253,4.817 2.562,7.826 2.732,3.56 6.618,4.679 9.593,4.679 v -22 c 2.205,0 5.513,0.868 7.86,3.927 1.924,2.507 1.985,4.972 1.985,5.568 z m 2.285,-8.44 c -1.263,2.283 -2.285,5.148 -2.285,8.44 h 22 c 0,1.332 -0.415,2.121 -0.465,2.21 z m 3.08,20.269 c 5.296,0 8.169,3.544 9.101,5.082 0.886,1.462 1.121,2.701 1.156,2.873 0.108,0.532 0.043,0.559 0.043,-0.42 h -22 c 0,1.331 0.052,3.09 0.393,4.777 0.151,0.749 0.532,2.421 1.594,4.173 1.106,1.826 4.184,5.515 9.713,5.515 z m 17.57,0 h -17.57 v 22 h 17.57 z m 11,15.095 v -4.095 h -22 v 4.095 z m -7.735,-10.035 c 0.039,0.006 0.244,0.038 0.561,0.125 0.289,0.08 0.904,0.268 1.665,0.665 1.263,0.659 5.509,3.42 5.509,9.245 h -22 c 0,6.221 4.514,9.32 6.314,10.26 1.878,0.979 3.699,1.311 4.641,1.455 z m -0.08,-0.02 c -0.057,0 -0.085,-0.004 -0.089,-0.004 l -2.972,21.798 c 1.023,0.139 2.045,0.206 3.061,0.206 z m 0.089,-0.004 c -0.004,0 -0.032,0.004 -0.089,0.004 v 22 c 1.016,0 2.038,-0.067 3.061,-0.206 z m -7.904,10.059 c 0,-5.825 4.246,-8.586 5.509,-9.245 0.761,-0.397 1.376,-0.585 1.665,-0.665 0.317,-0.087 0.522,-0.119 0.561,-0.125 l 3.31,21.75 c 0.942,-0.144 2.763,-0.476 4.641,-1.455 1.8,-0.94 6.314,-4.039 6.314,-10.26 z m 0,-15.225 v 15.225 h 22 v -15.225 z m 7.735,10.035 c -0.039,-0.006 -0.244,-0.038 -0.561,-0.126 -0.289,-0.079 -0.904,-0.268 -1.665,-0.664 -1.263,-0.66 -5.509,-3.42 -5.509,-9.245 h 22 c 0,-6.222 -4.514,-9.321 -6.314,-10.26 -1.878,-0.98 -3.699,-1.312 -4.641,-1.455 z m 0.08,0.02 c 0.057,0 0.085,0.003 0.089,0.004 l 2.972,-21.798 c -1.023,-0.14 -2.045,-0.206 -3.061,-0.206 z m -0.089,0.004 c 0.004,-10e-4 0.032,-0.004 0.089,-0.004 v -22 c -1.016,0 -2.038,0.066 -3.061,0.206 z m 7.904,-10.059 c 0,5.825 -4.246,8.585 -5.509,9.245 -0.761,0.396 -1.376,0.585 -1.665,0.664 -0.317,0.088 -0.522,0.12 -0.561,0.126 l -3.31,-21.75 c -0.942,0.143 -2.763,0.475 -4.641,1.455 -1.8,0.939 -6.314,4.038 -6.314,10.26 z m 0,4.2 v -4.2 h -22 v 4.2 z m -28.57,11 h 17.57 v -22 h -17.57 z m 10.3,-7.535 c 0,-0.979 0.065,-0.953 -0.043,-0.421 -0.035,0.172 -0.27,1.411 -1.156,2.874 -0.932,1.537 -3.805,5.082 -9.101,5.082 v -22 c -5.529,0 -8.607,3.689 -9.713,5.515 -1.062,1.751 -1.443,3.423 -1.594,4.173 -0.341,1.687 -0.393,3.446 -0.393,4.777 z m 0.07,26.059 c 0,-0.638 0.075,-0.172 -0.213,0.796 -0.153,0.514 -0.557,1.685 -1.553,2.965 -1.098,1.412 -2.941,2.96 -5.586,3.621 l -5.336,-21.343 c -6.182,1.545 -8.131,6.871 -8.609,8.476 -0.615,2.064 -0.703,4.093 -0.703,5.485 z m 0.099,1.602 c -0.082,-0.944 -0.099,-1.435 -0.099,-1.602 h -22 c 0,1.094 0.077,2.306 0.181,3.509 z m -10.574,-8.437 c 3.248,0 5.693,1.403 7.151,2.668 1.337,1.161 2.067,2.37 2.398,2.979 0.655,1.205 0.888,2.213 0.931,2.393 0.13,0.546 0.129,0.8 0.094,0.398 l -21.918,1.905 c 0.059,0.671 0.168,1.73 0.427,2.813 0.107,0.448 0.408,1.657 1.136,2.996 0.299,0.55 3.137,5.848 9.781,5.848 z m 21.01,-5.713 -23.73,6.055 5.44,21.317 23.73,-6.055 z m -8,5.863 c 0,1.551 -0.024,2.488 -0.051,2.955 -0.018,0.3 -0.019,0.087 0.059,-0.357 0.021,-0.126 0.162,-0.98 0.595,-2.04 0.2,-0.489 0.742,-1.734 1.876,-3.029 1.168,-1.333 3.923,-3.734 8.241,-3.734 v 22 c 4.341,0 7.119,-2.412 8.308,-3.77 1.157,-1.321 1.719,-2.603 1.94,-3.142 0.474,-1.16 0.653,-2.164 0.709,-2.489 0.148,-0.844 0.205,-1.657 0.234,-2.156 0.066,-1.131 0.089,-2.591 0.089,-4.238 z m 10.72,6.205 c -4.318,0 -7.073,-2.4 -8.241,-3.733 -1.134,-1.295 -1.676,-2.54 -1.876,-3.029 -0.433,-1.06 -0.574,-1.915 -0.595,-2.04 -0.078,-0.444 -0.077,-0.658 -0.059,-0.358 0.027,0.468 0.051,1.405 0.051,2.955 h 22 c 0,-1.646 -0.023,-3.106 -0.089,-4.237 -0.029,-0.499 -0.086,-1.312 -0.234,-2.156 -0.056,-0.325 -0.235,-1.329 -0.709,-2.489 -0.221,-0.539 -0.783,-1.821 -1.94,-3.142 -1.189,-1.358 -3.967,-3.771 -8.308,-3.771 z m -26.477,-6.552 23.695,6.195 5.564,-21.285 -23.695,-6.195 z m 13.111,-7.061 c 0.041,-0.157 -0.028,0.145 -0.217,0.628 -0.067,0.173 -0.366,0.943 -0.957,1.849 -0.287,0.44 -0.942,1.384 -2.049,2.327 -1.056,0.9 -3.499,2.614 -7.106,2.614 v -22 c -3.624,0 -6.086,1.724 -7.162,2.64 -1.126,0.96 -1.803,1.929 -2.111,2.402 -0.635,0.974 -0.982,1.844 -1.102,2.151 -0.294,0.751 -0.485,1.456 -0.584,1.835 z M 380,329.088 c 0,-0.186 0.002,-0.337 0.006,-0.456 0.004,-0.12 0.008,-0.195 0.011,-0.232 0.002,-0.039 0.002,-0.015 -0.008,0.059 -0.005,0.039 -0.013,0.099 -0.026,0.176 -0.013,0.077 -0.032,0.18 -0.059,0.305 l -21.498,-4.673 c -0.379,1.743 -0.426,3.55 -0.426,4.821 z m -7.825,-7.439 c 5.569,1.078 7.299,5.652 7.564,6.474 0.346,1.07 0.261,1.618 0.261,0.965 h -22 c 0,1.448 0.096,3.606 0.803,5.796 0.628,1.942 2.9,7.146 9.192,8.364 z m 4.755,1.103 -4.34,-1.015 -5.01,21.422 4.34,1.015 z m 8.495,16.276 v -5.565 h -22 v 5.565 z m -12.789,11.812 4.515,-1.155 -5.452,-21.313 -4.515,1.155 z m -4.766,-16.502 v 3.675 h 22 v -3.675 z m 21.022,-8.753 -7.245,-1.89 -5.554,21.287 7.245,1.89 z m 8.223,10.853 v -0.21 h -22 v 0.21 z m -15.908,12.324 7.245,-1.575 -4.674,-21.497 -7.245,1.574 z m -11.717,-3.119 c 6.341,0 9.093,4.881 9.573,5.832 0.679,1.343 0.84,2.428 0.854,2.51 0.064,0.381 0.013,0.297 0.013,-0.667 h -22 c 0,1.252 0.042,2.831 0.293,4.321 0.107,0.636 0.385,2.136 1.204,3.757 0.62,1.227 3.535,6.247 10.063,6.247 z m 7.945,0 h -7.945 v 22 h 7.945 z m 11,12.085 v -1.085 h -22 v 1.085 z m -14.326,13.398 7.665,-3.29 -8.678,-20.216 -7.665,3.29 z m 5.681,-8.078 c 0,0.857 -0.156,2.157 -0.849,3.592 -0.721,1.495 -1.804,2.672 -2.994,3.48 l -12.354,-18.204 c -4.167,2.828 -5.803,7.221 -5.803,11.132 z m -0.554,-2.943 c -0.201,-0.281 -0.129,-0.233 0.02,0.11 0.134,0.309 0.534,1.32 0.534,2.833 h -22 c 0,4.495 2.244,8.03 3.564,9.873 z m -3.537,-2.207 c 1.805,0.601 2.86,1.547 3.177,1.847 0.382,0.361 0.512,0.576 0.411,0.433 l -17.984,12.67 c 0.841,1.195 3.236,4.519 7.438,5.92 z m -1.788,-3.407 -7.35,4.41 11.318,18.864 7.35,-4.41 z m 13.219,1.895 c 0.219,0.106 0.497,0.273 0.789,0.521 0.294,0.249 0.543,0.532 0.74,0.819 l -18.178,12.394 c 1.837,2.693 4.293,4.738 7.129,6.1 z m -0.805,-0.243 c -0.011,0 0.067,-10e-4 0.212,0.03 0.148,0.031 0.327,0.088 0.517,0.177 l -9.368,19.906 c 2.797,1.316 5.737,1.887 8.639,1.887 z m -3.825,1.795 c 0,0.414 -0.02,0.723 -0.045,0.94 -0.011,0.107 -0.024,0.187 -0.033,0.241 -0.005,0.027 -0.009,0.047 -0.012,0.06 -0.003,0.014 -0.005,0.02 -0.005,0.02 0,0 0.002,-0.007 0.006,-0.02 0.004,-0.014 0.011,-0.034 0.02,-0.06 0.018,-0.053 0.049,-0.132 0.096,-0.232 0.094,-0.202 0.253,-0.487 0.503,-0.808 0.55,-0.704 1.301,-1.28 2.109,-1.625 0.742,-0.318 1.222,-0.311 1.186,-0.311 v 22 c 4.92,0 10.299,-1.717 14.057,-6.539 3.352,-4.3 4.118,-9.471 4.118,-13.666 z m 0,-6.685 v 6.685 h 22 v -6.685 z m 9.775,9.705 c -1.448,0 -4.514,-0.413 -7.072,-3.117 -2.45,-2.59 -2.703,-5.472 -2.703,-6.588 h 22 c 0,-1.979 -0.457,-5.509 -3.315,-8.53 -2.967,-3.137 -6.645,-3.765 -8.91,-3.765 z m -22.82,0 h 22.82 v -22 h -22.82 z m 10.475,-7.64 c 0,-0.987 0.048,-1.133 -0.001,-0.822 -0.007,0.045 -0.143,1.059 -0.744,2.341 -0.306,0.654 -1.017,1.999 -2.43,3.292 -1.591,1.454 -4.1,2.829 -7.3,2.829 v -22 c -6.956,0 -9.769,5.644 -10.19,6.541 -0.732,1.562 -0.977,2.996 -1.072,3.601 -0.224,1.431 -0.263,2.965 -0.263,4.218 z m 7.375,-7.675 h -5.25 v 22 h 5.25 z m 11,11.735 v -0.735 h -22 v 0.735 z m -3.852,9.878 c 3.479,-3.478 3.852,-7.782 3.852,-9.878 h -22 c 0,-0.241 0.019,-0.944 0.306,-1.901 0.299,-0.997 0.945,-2.436 2.286,-3.777 z m -9.633,3.887 c 2.642,0 6.823,-0.721 10.053,-4.33 l -16.396,-14.67 c 2.437,-2.723 5.381,-3 6.343,-3 z m -13.765,-14.325 c 0,2.361 0.449,6.178 3.234,9.527 3.107,3.737 7.325,4.798 10.531,4.798 v -22 c 1.362,0 4.198,0.507 6.384,3.135 1.863,2.241 1.851,4.396 1.851,4.54 z m 0,-0.175 v 0.175 h 22 v -0.175 z m -1.495,13.495 c 5.296,0 8.169,3.544 9.101,5.082 0.886,1.462 1.121,2.701 1.156,2.873 0.108,0.532 0.043,0.558 0.043,-0.42 h -22 c 0,1.331 0.052,3.09 0.393,4.777 0.151,0.749 0.532,2.421 1.594,4.172 1.106,1.827 4.184,5.516 9.713,5.516 z m 17.57,0 h -17.57 v 22 h 17.57 z m 11,15.095 v -4.095 h -22 v 4.095 z m -7.735,-10.035 c 0.039,0.006 0.244,0.038 0.561,0.125 0.289,0.079 0.904,0.268 1.665,0.665 1.263,0.659 5.509,3.42 5.509,9.245 h -22 c 0,6.221 4.514,9.32 6.314,10.259 1.878,0.98 3.699,1.312 4.641,1.455 z m -0.08,-0.02 c -0.057,0 -0.085,-0.004 -0.089,-0.005 l -2.972,21.799 c 1.023,0.139 2.045,0.206 3.061,0.206 z m 0.089,-0.005 c -0.004,10e-4 -0.032,0.005 -0.089,0.005 v 22 c 1.016,0 2.038,-0.067 3.061,-0.206 z m -7.904,10.06 c 0,-5.825 4.246,-8.586 5.509,-9.245 0.761,-0.397 1.376,-0.586 1.665,-0.665 0.317,-0.087 0.522,-0.119 0.561,-0.125 l 3.31,21.749 c 0.942,-0.143 2.763,-0.475 4.641,-1.455 1.8,-0.939 6.314,-4.038 6.314,-10.259 z m 0,-15.225 v 15.225 h 22 v -15.225 z m 7.735,10.034 c -0.039,-0.006 -0.244,-0.038 -0.561,-0.125 -0.289,-0.079 -0.904,-0.268 -1.665,-0.665 -1.263,-0.659 -5.509,-3.419 -5.509,-9.244 h 22 c 0,-6.222 -4.514,-9.321 -6.314,-10.26 -1.878,-0.98 -3.699,-1.312 -4.641,-1.455 z m 0.08,0.021 c 0.057,0 0.085,0.003 0.089,0.004 l 2.972,-21.799 c -1.023,-0.139 -2.045,-0.205 -3.061,-0.205 z m -0.089,0.004 c 0.004,-0.001 0.032,-0.004 0.089,-0.004 v -22 c -1.016,0 -2.038,0.066 -3.061,0.205 z m 7.904,-10.059 c 0,5.825 -4.246,8.585 -5.509,9.244 -0.761,0.397 -1.376,0.586 -1.665,0.665 -0.317,0.087 -0.522,0.119 -0.561,0.125 l -3.31,-21.749 c -0.942,0.143 -2.763,0.475 -4.641,1.455 -1.8,0.939 -6.314,4.038 -6.314,10.26 z m 0,4.2 v -4.2 h -22 v 4.2 z m -28.57,11 h 17.57 v -22 h -17.57 z m 10.3,-7.535 c 0,-0.979 0.065,-0.953 -0.043,-0.421 -0.035,0.172 -0.27,1.411 -1.156,2.874 -0.932,1.537 -3.805,5.082 -9.101,5.082 v -22 c -5.529,0 -8.607,3.689 -9.713,5.515 -1.062,1.751 -1.443,3.423 -1.594,4.173 -0.341,1.687 -0.393,3.445 -0.393,4.777 z m -7.09,21.873 c 0,-3.831 1.973,-6.669 3.901,-8.239 1.599,-1.302 3.121,-1.747 3.605,-1.878 1.039,-0.282 1.612,-0.218 1.044,-0.218 v 22 c 1.065,0 2.863,-0.047 4.719,-0.55 0.893,-0.243 2.721,-0.826 4.524,-2.294 2.132,-1.737 4.207,-4.768 4.207,-8.821 z m 0,-4.515 v 4.515 h 22 v -4.515 z m 14.535,-11 h -3.535 v 22 h 3.535 z m 11,17.475 v -6.475 h -22 v 6.475 z m -7.92,-10.265 c -0.814,0 -0.535,-0.069 0.243,0.117 0.323,0.077 1.72,0.414 3.273,1.525 1.835,1.315 4.404,4.198 4.404,8.623 h -22 c 0,4.669 2.697,7.768 4.789,9.266 1.809,1.295 3.592,1.785 4.428,1.985 1.805,0.43 3.623,0.484 4.863,0.484 z m -7.885,10.265 c 0,-4.48 2.627,-7.367 4.45,-8.657 1.547,-1.095 2.934,-1.424 3.245,-1.498 0.759,-0.179 1.018,-0.11 0.19,-0.11 v 22 c 1.249,0 3.065,-0.054 4.862,-0.478 0.83,-0.196 2.607,-0.678 4.414,-1.957 2.082,-1.474 4.839,-4.575 4.839,-9.3 z m 0,-12.53 v 12.53 h 22 v -12.53 z m 10.09,10.195 c -1.083,0 -3.95,-0.21 -6.606,-2.56 -2.913,-2.577 -3.484,-5.834 -3.484,-7.635 h 22 c 0,-2.338 -0.723,-5.998 -3.939,-8.843 -2.959,-2.618 -6.281,-2.962 -7.971,-2.962 z m -22.505,0 h 22.505 v -22 h -22.505 z m 9.915,-9.67 c 0,0.77 -0.112,3.39 -2.205,5.956 -2.443,2.994 -5.717,3.714 -7.71,3.714 v -22 c -2.716,0 -6.533,0.941 -9.337,4.379 -2.455,3.009 -2.748,6.294 -2.748,7.951 z m 0,11.97 v -11.97 h -22 v 11.97 z m -7.899,-10.133 c 0.076,0.014 1.295,0.202 2.774,1.072 1.636,0.962 5.125,3.832 5.125,9.061 h -22 c 0,5.555 3.688,8.706 5.72,9.901 1.876,1.103 3.689,1.478 4.559,1.632 z m 0.014,0.043 c 0.069,0 0.127,0.001 0.173,0.003 0.047,10e-4 0.083,0.003 0.11,0.005 0.027,10e-4 0.045,0.003 0.055,0.004 0.009,0.001 0.011,0.001 0.006,0 -0.012,-10e-4 -0.047,-0.005 -0.11,-0.014 -0.062,-0.009 -0.143,-0.022 -0.247,-0.041 l -3.824,21.665 c 1.078,0.191 2.431,0.378 3.837,0.378 z m -0.28,0.029 c 0.198,-0.031 0.299,-0.029 0.28,-0.029 v 22 c 1.008,0 2.066,-0.068 3.15,-0.24 z m -7.745,10.061 c 0,-2.482 0.868,-4.727 2.196,-6.448 1.202,-1.557 2.545,-2.395 3.323,-2.802 0.808,-0.422 1.47,-0.62 1.795,-0.707 0.354,-0.093 0.592,-0.128 0.66,-0.137 l 2.972,21.798 c 0.943,-0.129 2.821,-0.441 4.765,-1.457 2.015,-1.054 6.289,-4.203 6.289,-10.247 z m 0,-6.44 v 6.44 h 22 v -6.44 z m 14.5,-11 h -3.5 v 22 h 3.5 z m 11,15.445 v -4.445 h -22 v 4.445 z m -8.465,-10.33 c 0.17,0.025 1.542,0.2 3.168,1.129 0.895,0.512 2.231,1.459 3.37,3.085 1.229,1.757 1.927,3.888 1.927,6.116 h -22 c 0,5.42 3.537,8.614 5.787,9.901 1.953,1.115 3.815,1.431 4.638,1.548 z m 0.195,0.065 c 0.095,0 0.166,0.003 0.212,0.005 0.046,0.003 0.073,0.005 0.078,0.006 0.007,0 -0.047,-0.005 -0.171,-0.026 l -3.738,21.68 c 1.069,0.184 2.309,0.335 3.619,0.335 z m -11.83,11.906 c 6.341,0 9.093,4.881 9.573,5.831 0.679,1.344 0.84,2.428 0.854,2.51 0.064,0.382 0.013,0.298 0.013,-0.666 h -22 c 0,1.252 0.042,2.831 0.293,4.32 0.107,0.637 0.385,2.137 1.204,3.757 0.62,1.228 3.535,6.248 10.063,6.248 z m 7.945,0 h -7.945 v 22 h 7.945 z m 11,12.085 v -1.085 h -22 v 1.085 z m -14.326,13.398 7.665,-3.29 -8.678,-20.217 -7.665,3.29 z m 5.681,-8.078 c 0,0.857 -0.156,2.157 -0.849,3.592 -0.721,1.494 -1.804,2.672 -2.994,3.48 l -12.354,-18.205 c -4.167,2.828 -5.803,7.222 -5.803,11.133 z m -0.554,-2.943 c -0.201,-0.281 -0.129,-0.234 0.02,0.109 0.134,0.309 0.534,1.32 0.534,2.834 h -22 c 0,4.494 2.244,8.03 3.564,9.872 z m -3.537,-2.208 c 1.805,0.602 2.86,1.548 3.177,1.848 0.382,0.361 0.512,0.575 0.411,0.432 l -17.984,12.671 c 0.841,1.195 3.236,4.519 7.438,5.92 z m -1.788,-3.407 -7.35,4.41 11.318,18.865 7.35,-4.41 z m 13.219,1.896 c 0.219,0.105 0.497,0.272 0.789,0.52 0.294,0.25 0.543,0.532 0.74,0.82 l -18.178,12.393 c 1.837,2.694 4.293,4.739 7.129,6.1 z m -0.805,-0.243 c -0.011,0 0.067,-0.001 0.212,0.03 0.148,0.031 0.327,0.087 0.517,0.177 l -9.368,19.906 c 2.797,1.316 5.737,1.887 8.639,1.887 z m -3.825,1.795 c 0,0.414 -0.02,0.723 -0.045,0.94 -0.011,0.107 -0.024,0.186 -0.033,0.241 -0.005,0.026 -0.009,0.046 -0.012,0.06 -0.003,0.013 -0.005,0.02 -0.005,0.02 0,0 0.002,-0.007 0.006,-0.021 0.004,-0.013 0.011,-0.033 0.02,-0.06 0.018,-0.052 0.049,-0.131 0.096,-0.231 0.094,-0.202 0.253,-0.487 0.503,-0.808 0.55,-0.705 1.301,-1.28 2.109,-1.626 0.742,-0.317 1.222,-0.31 1.186,-0.31 v 22 c 4.92,0 10.299,-1.718 14.057,-6.539 3.352,-4.301 4.118,-9.472 4.118,-13.666 z m 0,-6.685 v 6.685 h 22 v -6.685 z m 9.775,9.705 c -1.448,0 -4.514,-0.413 -7.072,-3.117 -2.45,-2.59 -2.703,-5.472 -2.703,-6.588 h 22 c 0,-1.98 -0.457,-5.509 -3.315,-8.531 -2.967,-3.136 -6.645,-3.764 -8.91,-3.764 z m -22.82,0 h 22.82 v -22 h -22.82 z m 10.475,-7.64 c 0,-0.988 0.048,-1.133 -0.001,-0.822 -0.007,0.045 -0.143,1.059 -0.744,2.34 -0.306,0.655 -1.017,2 -2.43,3.292 -1.591,1.454 -4.1,2.83 -7.3,2.83 v -22 c -6.956,0 -9.769,5.644 -10.19,6.541 -0.732,1.562 -0.977,2.996 -1.072,3.6 -0.224,1.432 -0.263,2.966 -0.263,4.219 z m 7.375,-7.675 h -5.25 v 22 h 5.25 z m 11,11.735 v -0.735 h -22 v 0.735 z m -3.852,9.878 c 3.479,-3.479 3.852,-7.782 3.852,-9.878 h -22 c 0,-0.241 0.019,-0.944 0.306,-1.901 0.299,-0.997 0.945,-2.436 2.286,-3.778 z m -9.633,3.887 c 2.642,0 6.823,-0.721 10.053,-4.331 l -16.396,-14.669 c 2.437,-2.723 5.381,-3 6.343,-3 z m -13.765,-14.325 c 0,2.36 0.449,6.178 3.234,9.527 3.107,3.737 7.325,4.798 10.531,4.798 v -22 c 1.362,0 4.198,0.506 6.384,3.135 1.863,2.24 1.851,4.396 1.851,4.54 z m 0,-0.175 v 0.175 h 22 v -0.175 z"
         fill="#ffffff"
         fill-opacity="0.06"
         mask="url(#path-2-outside-1_34_182)"
         id="path4" /></g><text
       xml:space="preserve"
       style="font-weight:bold;font-size:13.4812px;font-family:'Built Titling';-inkscape-font-specification:'Built Titling, Bold';fill:#ffffff;fill-opacity:0.291139;stroke:none;stroke-width:0.0524146"
       x="87.145592"
       y="284.56384"
       id="text1"><tspan
         sodipodi:role="line"
         id="tspan1"
         style="fill:#ffffff;fill-opacity:0.291139;stroke:none;stroke-width:0.0524146"
         x="87.145592"
         y="284.56384">silver demon studios</tspan></text></g></svg>
